<?xml version="1.0" encoding="utf-8"?>
<!-- Generator: Adobe Illustrator 22.0.1, SVG Export Plug-In . SVG Version: 6.00 Build 0)  -->
<svg version="1.1" id="Layer_1" xmlns="http://www.w3.org/2000/svg" xmlns:xlink="http://www.w3.org/1999/xlink" x="0px" y="0px"
	 viewBox="0 0 10.4 8" style="enable-background:new 0 0 10.4 8;" xml:space="preserve">
<style type="text/css">
	.st0{fill:#FFFFFF;}
</style>
<title>vink</title>
<desc>Created with Sketch.</desc>
<g id="Page-1">
	<path id="vink" class="st0" d="M10.4,1.6c0,0.2-0.1,0.3-0.2,0.5L4.4,7.8C4.3,7.9,4.1,8,4,8C3.8,8,3.6,7.9,3.5,7.8L0.2,4.4
		C0.1,4.3,0,4.1,0,4c0-0.2,0.1-0.3,0.2-0.5l0.9-0.9c0.1-0.1,0.3-0.2,0.5-0.2S1.9,2.5,2,2.6l2,2l4.4-4.4C8.5,0.1,8.7,0,8.8,0
		C9,0,9.2,0.1,9.3,0.2l0.9,0.9C10.3,1.2,10.4,1.4,10.4,1.6z"/>
</g>
</svg>
